<svg xmlns="http://www.w3.org/2000/svg" viewBox="0 0 447.09 127.26"><g><g><g id="LOGO"><text transform="translate(74.83 41.15) scale(1.01 1)" style="font-size:45px;fill:#193d1c;font-family:Cinzel-Regular, Cinzel">H</text><text transform="translate(111.96 41) scale(1.12 1)" style="font-size:36px;fill:#193d1c;font-family:Cinzel-Regular, Cinzel"><tspan style="letter-spacing:-0.02400615229713549em">a</tspan><tspan x="23" y="0" style="letter-spacing:-0.004988133768515008em">j</tspan><tspan x="33.95" y="0" style="letter-spacing:0.007998005239541098em">i</tspan><tspan x="46.33" y="0" style="letter-spacing:0.00998840411554222em">m</tspan><tspan x="78.3" y="0">e </tspan></text><text transform="translate(231.49 40.8) scale(1.3 1)" style="font-size:48px;fill:#193d1c;font-family:Cinzel-Regular, Cinzel">S</text><text transform="translate(260.17 41) scale(1.12 1)" style="font-size:36px;fill:#193d1c;font-family:Cinzel-Regular, Cinzel;letter-spacing:-0.008981068099029457em">u<tspan x="24.88" y="0" style="letter-spacing:-0.02403042545415989em">z</tspan><tspan x="45.9" y="0" style="letter-spacing:-0.0039807977520022455em">u</tspan><tspan x="70.96" y="0" style="letter-spacing:0.015996010479082196em">k</tspan><tspan x="93.99" y="0" style="letter-spacing:0.00002427315702440393em">i</tspan></text><path d="M230.06,72.82c-.63-.35-1.33-1.16-2.09-.6a1.15,1.15,0,0,0-.34,1.36,1.22,1.22,0,0,0,1.25.66,1.39,1.39,0,0,0,1-.67c.85-1.41-.6-2.85-2-2.63a2.45,2.45,0,0,0-2,2.87,2.69,2.69,0,0,0,1.71,2.12,3.48,3.48,0,0,0,3.33-1.21,2.93,2.93,0,0,0,.73-1.48,4.28,4.28,0,0,0-1.51-4.11,4.51,4.51,0,0,0-2.47-.9,4.91,4.91,0,0,0-4.92,3.59,6.13,6.13,0,0,0,.07,3.44,5.65,5.65,0,0,0,1.18,2,6,6,0,0,0,9.06-.18,10,10,0,0,0,2.31-6.54,8.81,8.81,0,0,0-1.85-5.35,10.61,10.61,0,0,0-5.93-3.75,12.49,12.49,0,0,0-7.23.64l-.32.13q-.68.27-1.32.6t-1.27.71q-.62.38-1.22.8c-.4.28-.79.58-1.17.88s-.5.38-.8.55l-1.37.83-1.38.81a23.64,23.64,0,0,1-3.63,1.82c-.64.24-1.29.46-2,.64l-1,.24a8.25,8.25,0,0,1-1,.13q-.53.07-1.06.1v8.49a20.33,20.33,0,0,0,5.66-.86,28.83,28.83,0,0,0,4.35-1.85,19.54,19.54,0,0,0,2.39-1.55c.79-.6,1.53-1.23,2.28-1.87L220,70.61l1.23-1.06c.37-.32.76-.62,1.14-.92a4.24,4.24,0,0,1,2.37-1.27,3,3,0,0,1,.62.09,2.64,2.64,0,0,1,.52.18.83.83,0,0,1,.38.3.58.58,0,0,1,.07.2c0,.05,0,.13,0,.18" style="fill:none;stroke:#818181;stroke-miterlimit:10"/><path d="M220.13,85.13s0,.12,0,.18a.61.61,0,0,0,.07.2.83.83,0,0,0,.38.3,2.62,2.62,0,0,0,.52.18,3.08,3.08,0,0,0,.62.09,4.24,4.24,0,0,0,2.37-1.27c.38-.31.77-.6,1.14-.92l1.23-1.06L229,80.7c.75-.65,1.49-1.28,2.28-1.87a19.61,19.61,0,0,1,2.39-1.55A28.94,28.94,0,0,1,238,75.43a20.37,20.37,0,0,1,5.66-.86v8.49c-.36,0-.71.05-1.06.1a8.45,8.45,0,0,0-1,.13l-1,.24c-.66.18-1.31.41-2,.64A23.72,23.72,0,0,0,235,86l-1.38.81-1.37.83c-.29.18-.5.37-.79.55s-.77.6-1.17.88-.8.55-1.22.8-.84.49-1.27.71-.87.42-1.32.6l-.33.13a12.5,12.5,0,0,1-7.23.64A10.6,10.6,0,0,1,213,88.18a8.8,8.8,0,0,1-1.85-5.35,10,10,0,0,1,2.31-6.54,6,6,0,0,1,9.06-.18,5.65,5.65,0,0,1,1.18,2,6.12,6.12,0,0,1,.07,3.44,4.91,4.91,0,0,1-4.92,3.59,4.49,4.49,0,0,1-2.47-.9,4.27,4.27,0,0,1-1.51-4.11,2.94,2.94,0,0,1,.73-1.48,3.49,3.49,0,0,1,3.33-1.21,2.69,2.69,0,0,1,1.71,2.12,2.45,2.45,0,0,1-2,2.87c-1.44.22-2.89-1.22-2-2.63a1.4,1.4,0,0,1,1-.66,1.22,1.22,0,0,1,1.25.66,1.15,1.15,0,0,1-.34,1.36c-.76.56-1.46-.25-2.09-.6" style="fill:none;stroke:#818181;stroke-miterlimit:10"/><line x1="247.59" y1="74.18" x2="447.09" y2="74.18" style="fill:#dcdddd"/><polygon points="247.59 73.18 447.09 74.18 247.59 75.18 247.59 73.18" style="fill:#dcdddd"/><line x1="199.5" y1="74.18" y2="74.18" style="fill:#dcdddd"/><polygon points="199.5 75.18 0 74.18 199.5 73.18 199.5 75.18" style="fill:#dcdddd"/><text transform="translate(138.86 122.81)" style="font-size:14px;fill:#3e3a39;font-family:Cinzel-Regular, Cinzel">FULL STACK DEVELOPER</text></g></g></g></svg>